<svg xmlns="http://www.w3.org/2000/svg" viewBox="0 0 100 100">
  <rect width="100" height="100" rx="20" fill="#191c21"/>
  <g transform="translate(20,15)" stroke="#8fa948" stroke-width="4" fill="none" stroke-linecap="round" stroke-linejoin="round">
    <path d="M5 65V15a5 5 0 0 1 5-5h20a5 5 0 0 1 5 5v50"/>
    <path d="M5 65h30"/>
    <path d="M35 30h6a5 5 0 0 1 5 5v12a5 5 0 0 0 5 5h0a5 5 0 0 0 5-5V22l-10-12"/>
    <rect x="12" y="16" width="13" height="13" rx="2" fill="#8fa94830"/>
  </g>
</svg>
